HIERARCHY
ROOT hip
{
	OFFSET 0.000000 0.000000 0.000000 
	CHANNELS 6 Xposition Yposition Zposition Xrotation Zrotation Yrotation
	JOINT abdomen
	{
		OFFSET 0.000000 3.402643 0.000000 
		CHANNELS 3 Xrotation Zrotation Yrotation
		JOINT chest
		{
			OFFSET 0.000000 8.438565 -0.680529 
			CHANNELS 3 Xrotation Zrotation Yrotation
			JOINT neck
			{
				OFFSET 0.000000 10.207942 -0.272212 
				CHANNELS 3 Xrotation Zrotation Yrotation
				JOINT head
				{
					OFFSET 0.000000 3.130431 0.000000 
					CHANNELS 3 Xrotation Zrotation Yrotation
					End Site
					{
						OFFSET 0.000000 3.130435 0.000000 
					}
				}
			}
			JOINT lCollar
			{
				OFFSET 3.470700 6.669187 -0.816635 
				CHANNELS 3 Yrotation Zrotation Xrotation
				JOINT lShldr
				{
					OFFSET 3.198488 0.000000 0.000000 
					CHANNELS 3 Zrotation Yrotation Xrotation
					JOINT lForeArm
					{
						OFFSET 10.139888 0.000000 0.000000 
						CHANNELS 3 Yrotation Zrotation Xrotation
						JOINT lHand
						{
							OFFSET 8.370511 0.000000 0.000000 
							CHANNELS 3 Zrotation Yrotation Xrotation
							End Site
							{
								OFFSET 4.083176 0.000000 0.000000 
							}
						}
					}
				}
			}
			JOINT rCollar
			{
				OFFSET -3.470700 6.669187 -0.816635 
				CHANNELS 3 Yrotation Zrotation Xrotation
				JOINT rShldr
				{
					OFFSET -3.198488 0.000000 0.000000 
					CHANNELS 3 Zrotation Yrotation Xrotation
					JOINT rForeArm
					{
						OFFSET -10.139888 0.000000 0.000000 
						CHANNELS 3 Yrotation Zrotation Xrotation
						JOINT rHand
						{
							OFFSET -8.370511 0.000000 0.000000 
							CHANNELS 3 Zrotation Yrotation Xrotation
							End Site
							{
								OFFSET -4.083176 0.000000 0.000000 
							}
						}
					}
				}
			}
		}
	}
	JOINT lThigh
	{
		OFFSET 5.308129 -1.633274 1.361059 
		CHANNELS 3 Xrotation Zrotation Yrotation
		JOINT lShin
		{
			OFFSET -2.041588 -20.007561 0.000000 
			CHANNELS 3 Xrotation Zrotation Yrotation
			JOINT lFoot
			{
				OFFSET 0.000000 -19.190928 -1.224953 
				CHANNELS 3 Xrotation Yrotation Zrotation
				End Site
				{
					OFFSET 0.000000 -2.449906 4.627600 
				}
			}
		}
	}
	JOINT rThigh
	{
		OFFSET -5.308129 -1.633274 1.361059 
		CHANNELS 3 Xrotation Zrotation Yrotation
		JOINT rShin
		{
			OFFSET 2.041588 -20.007561 0.000000 
			CHANNELS 3 Xrotation Zrotation Yrotation
			JOINT rFoot
			{
				OFFSET 0.000000 -19.190928 -1.224953 
				CHANNELS 3 Xrotation Yrotation Zrotation
				End Site
				{
					OFFSET 0.000000 -2.449906 4.627600 
				}
			}
		}
	}
}
MOTION
Frames: 19
Frame Time: 0.016667
47.657131 48.384430 52.426945 177.617004 179.843994 -7.828760 -21.916000 -1.824320 0.807394 20.195200 1.191380 0.109675 11.689800 -3.862880 -2.120410 11.251100 3.424310 -0.657025 2.000000 -2.000000 0.000000 126.287003 -122.113998 6.299060 25.742500 -0.337996 0.059440 0.045800 -0.019315 -143.835999 -2.000000 2.000000 0.000000 15.036400 52.492199 133.268005 -29.453400 0.333895 0.067229 -0.056490 0.025812 -146.179993 -4.434735 -4.893873 -6.403203 21.589483 3.997431 1.399676 -11.370416 5.293594 -1.924303 -27.594481 -5.415023 11.076347 22.362152 -2.012116 -2.073445 1.468862 -7.047235 -0.691333 
47.815754 48.391640 51.808861 177.188004 -179.815002 -6.133470 -22.134300 -2.130780 1.435260 20.078100 0.742162 0.364895 11.686400 -4.166580 -2.847070 11.091500 3.096310 -0.990963 2.000000 -2.000000 0.000000 124.929001 -121.586998 10.392100 26.640900 -0.337050 0.061363 0.046291 -0.023002 -145.164001 -2.000000 2.000000 0.000000 15.506700 50.960800 132.173996 -29.453400 0.333895 0.067229 -0.056092 0.023244 -145.251999 -3.879709 -4.957033 -6.108977 20.567120 4.122339 1.307099 -10.918568 4.259933 -2.181827 -27.599766 -6.000106 11.830311 19.114550 -1.851645 -1.924197 2.200350 -8.278824 -0.786193 
47.941235 48.383015 51.080235 177.020996 -179.716995 -5.258720 -21.839100 -1.998370 1.400020 20.644501 0.878905 0.362826 11.570100 -4.861070 -2.506810 11.138900 2.921460 -0.844075 2.000000 -2.000000 0.000000 124.712997 -121.420998 10.490100 27.031500 -0.336629 0.062195 0.046370 -0.023543 -145.358994 -2.000000 2.000000 0.000000 14.617000 51.822300 130.847000 -29.189800 0.334203 0.066681 -0.055583 0.019450 -143.884995 -3.183514 -5.135830 -6.236082 20.319405 4.439369 1.251138 -10.915036 4.363533 -2.337334 -27.313007 -6.235124 12.924121 15.764432 -1.623856 -1.767793 2.711713 -9.310937 -0.917855 
48.124008 48.373875 50.399803 176.865005 -179.727005 -3.783880 -21.750799 -1.913300 1.015350 20.712900 1.142570 0.188857 11.854400 -4.837430 -2.046780 11.345500 3.055310 -0.611135 2.000000 -2.000000 0.000000 124.292000 -121.361000 9.767630 27.011999 -0.336650 0.062153 0.046439 -0.024002 -145.524994 -2.000000 2.000000 0.000000 13.633100 52.104698 131.363007 -29.199499 0.334192 0.066701 -0.055874 0.021701 -144.695007 -2.425698 -5.017145 -6.126349 19.701218 4.806382 1.181431 -10.435893 4.074590 -2.580079 -26.851496 -6.455034 14.381112 12.837673 -1.386597 -1.631552 -177.132675 -168.544159 178.864334 
48.313862 48.370403 49.764980 176.376999 -179.395996 -1.914870 -21.929600 -2.130220 1.214940 20.449200 0.986327 0.261823 11.869500 -5.070860 -2.433440 11.343700 2.851910 -0.803271 2.000000 -2.000000 0.000000 124.487999 -119.450996 15.952300 26.172199 -0.337547 0.060361 0.048851 -0.036540 -150.085999 -2.000000 2.000000 0.000000 14.069500 51.402000 131.080994 -29.453400 0.333895 0.067229 -0.055744 0.020725 -144.343994 -2.052691 -5.142044 -6.380435 18.970331 5.168996 1.115612 -10.008368 2.924996 -2.996150 -26.776306 -7.173043 16.008982 10.257236 -1.130402 -1.515429 -177.730179 -165.775452 178.414780 
48.483826 48.342087 48.989281 176.298996 -179.619995 -0.707837 -21.731199 -1.914570 1.067610 20.830099 1.113270 0.220346 11.959700 -4.864000 -2.170610 11.404000 3.045100 -0.824109 2.000000 -2.000000 0.000000 123.929001 -119.253998 15.093400 26.289400 -0.337424 0.060612 0.048308 -0.034139 -149.207001 -2.000000 2.000000 0.000000 13.657100 51.755299 129.938995 -29.306999 0.334066 0.066925 -0.055317 0.017141 -143.054993 -1.420267 -4.851999 -6.579731 19.092751 5.597768 1.083887 -10.090766 2.464172 -3.282342 -26.264711 -7.202193 16.844511 7.830036 -0.830456 -1.432783 -178.211884 -163.781708 177.952408 
48.669636 48.320335 48.326824 175.731995 -179.669006 1.304000 -22.006500 -2.012610 0.749860 20.615200 1.025390 -0.067136 11.911100 -4.931530 -2.327980 11.257200 3.027030 -0.922241 2.000000 -2.000000 0.000000 122.191002 -120.705002 13.499600 27.930000 -0.335640 0.064097 0.047024 -0.027592 -146.824005 -2.000000 2.000000 0.000000 14.143600 51.932301 129.167999 -29.004200 0.334418 0.066294 -0.054905 0.012730 -141.473007 -1.395711 -4.638071 -7.081335 18.879045 5.934318 1.072946 -9.502053 2.134294 -3.489354 -26.103302 -7.739142 17.178549 5.478352 -0.458032 -1.377544 -177.139374 -161.345642 177.834305 
48.867577 48.235786 47.533043 175.703003 -179.406006 2.007520 -21.780600 -1.970290 1.196980 20.917999 0.947247 0.142854 12.128600 -5.082510 -2.356240 11.432300 2.918950 -0.917040 2.000000 -2.000000 0.000000 121.882004 -119.808998 14.174100 27.910500 -0.335662 0.064055 0.047086 -0.027942 -146.951004 -2.000000 2.000000 0.000000 13.973000 52.296299 127.295998 -28.379200 0.335134 0.064986 -0.054599 0.008009 -139.783005 -0.712519 -4.901508 -6.411537 18.840315 6.403519 1.063964 -9.091277 1.961358 -3.682168 -25.851572 -7.952052 17.612133 4.121329 -0.220144 -1.331895 -178.335266 -160.098740 177.218842 
49.084949 48.161911 46.792282 175.457993 -179.123993 3.448490 -21.850401 -2.051100 1.148130 20.869200 0.986313 0.103204 12.709600 -5.055080 -2.434440 11.666900 2.907200 -0.955236 2.000000 -2.000000 0.000000 121.450996 -119.721001 14.359900 28.125299 -0.335421 0.064508 0.047015 -0.027538 -146.804993 -2.000000 2.000000 0.000000 14.216200 52.511902 126.778000 -28.135099 0.335410 0.064472 -0.054516 0.006124 -139.108994 -0.051439 -5.111874 -6.530092 18.610828 7.189319 1.057202 -9.072306 0.940807 -4.217965 -25.959406 -8.200932 17.792719 3.721823 -0.172443 -1.316407 -1.400326 -21.075411 -3.962124 
49.294235 48.042099 46.021305 175.281006 -178.209000 4.708280 -21.822800 -2.173810 1.238000 20.771500 1.220690 0.121972 13.317100 -4.657430 -2.020990 12.001700 3.155640 -0.746948 2.000000 -2.000000 0.000000 121.370003 -119.281998 14.526900 28.047199 -0.335509 0.064343 0.046737 -0.025893 -146.209000 -2.000000 2.000000 0.000000 14.061600 50.559601 132.671997 -30.010099 0.333236 0.068383 -0.056014 0.022703 -145.057007 0.724791 -6.054023 -6.459180 18.331795 7.986218 1.087717 -8.523075 0.146539 -4.681918 -26.254421 -8.836723 17.270311 4.250755 -0.313664 -1.280158 3.280229 -22.015244 -2.066482 
49.517567 47.945446 45.230782 174.772003 -177.811996 6.108240 -21.628000 -2.195660 0.985546 21.426001 1.406090 0.002037 13.157400 -5.138060 -1.919120 11.942000 3.049820 -0.725896 2.000000 -2.000000 0.000000 122.009003 -118.792000 13.940800 28.037399 -0.335520 0.064323 0.047038 -0.027673 -146.852997 -2.000000 2.000000 0.000000 13.502900 51.920502 130.466995 -29.023800 0.334396 0.066335 -0.055303 0.017004 -143.005997 1.109098 -6.339061 -6.556475 18.006163 8.752614 1.106532 -7.976491 -0.629896 -5.085037 -26.484625 -9.119744 16.471560 4.464809 -0.341051 -1.292673 0.830809 -22.374996 -2.996007 
49.744148 47.818417 44.433403 174.623993 -177.656998 7.417510 -21.481199 -2.208740 1.256880 21.640900 1.191190 0.110631 12.212200 -5.590440 -2.228690 11.480200 2.812010 -0.879663 2.000000 -2.000000 0.000000 121.869003 -118.152000 15.573200 28.506201 -0.334990 0.065308 0.047370 -0.029503 -147.516998 -2.000000 2.000000 0.000000 13.531700 51.167599 131.100006 -29.248400 0.334135 0.066803 -0.055508 0.018825 -143.660004 1.158196 -6.012209 -6.589458 19.002415 8.758912 1.175913 -7.579807 358.013275 -5.127595 -26.172495 -9.140459 15.466779 4.649341 -0.370259 -1.306367 -1.356915 -22.193096 -3.765695 
49.985119 47.688564 43.605473 -5.679500 -2.555770 -171.289001 -21.548800 -2.199240 1.476780 21.552900 1.064290 0.213998 12.088800 -5.681100 -2.435440 11.401500 2.744880 -0.980165 2.000000 -2.000000 0.000000 121.375999 -117.450996 16.794300 28.457300 -0.335046 0.065205 0.047513 -0.030255 -147.791000 -2.000000 2.000000 0.000000 13.903600 50.638802 131.977997 -29.511999 0.333826 0.067351 -0.055719 0.020535 -144.274994 0.941462 -5.607805 -6.623214 20.184893 8.530255 1.244205 -7.205525 -3.448767 -5.038022 -26.128519 -9.049088 13.884940 5.528092 -0.535319 -1.319677 -1.156547 -22.061056 -3.441438 
50.240688 47.562824 42.713509 -5.768570 -2.788560 -170.061005 -21.184099 -1.980950 1.364340 22.139099 1.366670 0.223522 12.099100 -6.164580 -2.212490 11.498600 2.666610 -0.897763 2.000000 -2.000000 0.000000 121.427002 -116.804001 15.789900 28.525700 -0.334968 0.065349 0.047275 -0.028992 -147.332001 -2.000000 2.000000 0.000000 13.305700 51.432400 130.358994 -29.043301 0.334373 0.066375 -0.055249 0.016488 -142.820007 0.894638 -5.086125 -6.602410 21.720205 8.140022 1.332291 -6.726780 -4.768573 -4.827075 -25.920593 -8.851538 12.579618 7.004458 -0.797289 -1.339950 -3.019400 -21.975304 -3.867160 
50.495922 47.396679 41.778179 -5.867720 -3.050370 -168.690994 -21.077200 -1.978190 1.149300 22.266100 1.317770 0.127429 12.628000 -6.722090 -1.960610 11.810100 2.509200 -0.777453 2.000000 -2.000000 0.000000 123.080002 -117.212997 14.968700 29.482700 -0.333861 0.067346 0.047808 -0.031758 -148.337997 -2.000000 2.000000 0.000000 13.503600 52.164700 130.427994 -28.926100 0.334509 0.066131 -0.055166 0.015671 -142.526993 0.903790 -4.627021 -6.749355 22.925827 8.065174 1.407691 -5.665396 -6.413742 -4.687313 -25.821615 -8.538262 11.274900 9.305885 -1.151946 -1.397445 -2.375662 -22.517361 -3.285198 
50.740257 47.225250 40.817017 -5.860500 -3.487580 -167.854996 -21.192200 -1.923600 1.572930 22.168301 1.112840 0.324461 12.237400 -6.870010 -2.104000 11.487200 2.463350 -0.876040 2.000000 -2.000000 0.000000 121.902000 -116.337997 16.932501 29.111601 -0.334294 0.066574 0.048119 -0.033257 -148.884995 -2.000000 2.000000 0.000000 14.414500 51.537201 132.056000 -29.150700 0.334248 0.066599 -0.055286 0.016841 -142.947006 1.296644 -4.410686 -6.348988 23.828917 8.190512 1.482587 -4.019217 -7.810106 -4.446790 -25.563955 -8.352959 10.129992 11.404934 -1.396897 -1.484777 -1.895811 -22.050619 -2.759979 
51.013573 47.176346 39.801136 -5.787790 -4.294490 -166.763000 -21.179800 -1.880060 1.911340 22.217199 1.220190 0.484789 12.277300 -7.149670 -2.215330 11.339900 2.377300 -0.942367 2.000000 -2.000000 0.000000 118.822998 -115.708000 19.033600 28.555000 -0.334934 0.065410 0.047664 -0.031033 -148.074005 -2.000000 2.000000 0.000000 15.390300 51.547298 131.785004 -28.779600 0.334677 0.065825 -0.054791 0.011203 -140.925995 1.700505 -4.393981 -6.247184 24.946198 8.191774 1.560198 -2.214520 -9.105499 -4.040262 -25.522167 -8.504096 10.615154 13.858956 -1.703858 -1.539915 1.252998 -23.370235 -1.224760 
51.280491 47.234516 38.851883 -5.758710 -4.333570 -166.302002 -21.468901 -1.734150 2.161100 21.543100 0.761606 0.628476 12.291200 -7.383590 -2.064780 11.252100 2.397320 -0.904491 2.000000 -2.000000 0.000000 117.392998 -116.207001 19.100800 28.662399 -0.334812 0.065635 0.047110 -0.028077 -147.000000 -2.000000 2.000000 0.000000 16.634899 51.730801 133.100998 -28.877300 0.334565 0.066029 -0.054791 0.011203 -140.925995 1.436697 -3.458562 -5.494840 26.416643 7.734088 1.610024 1.426758 -10.559668 -2.970384 -25.807125 -8.044058 11.461622 15.560047 -1.821725 -1.630465 5.459553 -22.008381 0.655952 
51.497868 47.289349 37.927563 -5.071580 -4.095290 -165.886993 -21.414301 -1.360680 2.211520 21.201200 0.410130 0.737106 12.122300 -8.723920 -1.802010 11.131800 1.952430 -0.809146 2.000000 -2.000000 0.000000 120.374001 -117.708000 18.103500 31.016001 -0.332018 0.070506 0.048764 -0.036167 -149.949005 -2.000000 2.000000 0.000000 18.057501 51.726799 135.511002 -29.511999 0.333826 0.067351 -0.054920 0.012921 -141.541000 0.910989 -2.025749 -5.520273 29.701880 6.732028 1.774884 4.642727 -11.225193 -1.780935 -25.243338 -7.399075 10.321945 17.637596 -2.000616 -1.734450 3.679612 -20.006363 0.268429 
